<svg xmlns="http://www.w3.org/2000/svg" width="55.024" height="55.024" viewBox="0 0 55.024 55.024">
  <g id="Group_484" data-name="Group 484" transform="translate(0)">
    <rect id="Rectangle_237" data-name="Rectangle 237" width="55.024" height="55.024" rx="27.512" transform="translate(0 0)" fill="#e2e2e2"/>
    <g id="FULL_COLOR_ICON" data-name="FULL COLOR ICON" transform="translate(12.105 12.876)">
      <g id="TYPE_A" data-name="TYPE A" transform="translate(0 0)">
        <g id="Group_397" data-name="Group 397" transform="translate(0 0)">
          <path id="Path_1016" data-name="Path 1016" d="M318.814,269.333c0-6.851-6.868-12.425-15.311-12.425s-15.31,5.574-15.31,12.425c0,6.142,5.447,11.286,12.8,12.258.5.108,1.177.329,1.349.755a3.144,3.144,0,0,1,.049,1.384s-.179,1.08-.218,1.311c-.067.387-.308,1.514,1.326.825s8.818-5.192,12.03-8.889h0a11.054,11.054,0,0,0,3.282-7.645" transform="translate(-288.193 -256.908)"/>
          <g id="Group_396" data-name="Group 396" transform="translate(5.022 9.114)">
            <path id="Path_1017" data-name="Path 1017" d="M320.462,282.916h-1.074a.3.3,0,0,0-.3.3v6.671a.3.3,0,0,0,.3.3h1.074a.3.3,0,0,0,.3-.3v-6.671a.3.3,0,0,0-.3-.3" transform="translate(-313.285 -282.916)" fill="#e2e2e2"/>
            <path id="Path_1018" data-name="Path 1018" d="M332.886,282.916h-1.074a.3.3,0,0,0-.3.3v3.963l-3.057-4.129a.263.263,0,0,0-.023-.03l0,0-.018-.018-.006-.005-.016-.014-.008-.006-.015-.011-.009-.005-.016-.009-.009,0-.017-.007-.01,0-.018-.006-.01,0-.017,0h-.013l-.016,0h-1.1a.3.3,0,0,0-.3.3v6.671a.3.3,0,0,0,.3.3h1.074a.3.3,0,0,0,.3-.3v-3.962l3.061,4.134a.294.294,0,0,0,.075.074l0,0,.018.011.008,0,.014.007.014.006.009,0,.02.006h0a.278.278,0,0,0,.076.01h1.074a.3.3,0,0,0,.3-.3v-6.671a.3.3,0,0,0-.3-.3" transform="translate(-318.317 -282.916)" fill="#e2e2e2"/>
            <path id="Path_1019" data-name="Path 1019" d="M307.113,288.512H304.2v-5.3a.3.3,0,0,0-.3-.3h-1.074a.3.3,0,0,0-.3.3v6.67h0a.3.3,0,0,0,.083.206l0,0,0,0a.3.3,0,0,0,.206.083h4.291a.3.3,0,0,0,.3-.3V288.81a.3.3,0,0,0-.3-.3" transform="translate(-302.525 -282.916)" fill="#e2e2e2"/>
            <path id="Path_1020" data-name="Path 1020" d="M352.518,284.586a.3.3,0,0,0,.3-.3v-1.074a.3.3,0,0,0-.3-.3h-4.291a.3.3,0,0,0-.207.084l0,0,0,.005a.3.3,0,0,0-.083.205h0v6.67h0a.3.3,0,0,0,.083.206l0,0,0,0a.3.3,0,0,0,.206.083h4.291a.3.3,0,0,0,.3-.3V288.81a.3.3,0,0,0-.3-.3H349.6v-1.128h2.918a.3.3,0,0,0,.3-.3v-1.074a.3.3,0,0,0-.3-.3H349.6v-1.128Z" transform="translate(-332.019 -282.916)" fill="#e2e2e2"/>
          </g>
        </g>
      </g>
    </g>
  </g>
</svg>
